<svg width="24" height="22" viewBox="0 0 24 22" fill="none" xmlns="http://www.w3.org/2000/svg">
<path d="M8 15.5833H16M11.0177 2.53368L4.23539 7.36921C3.78202 7.69245 3.55534 7.85407 3.39203 8.05647C3.24737 8.23576 3.1396 8.43773 3.07403 8.65248C3 8.89491 3 9.15815 3 9.68465V16.3167C3 17.3434 3 17.8568 3.21799 18.249C3.40973 18.5939 3.71569 18.8744 4.09202 19.0502C4.51984 19.25 5.07989 19.25 6.2 19.25H17.8C18.9201 19.25 19.4802 19.25 19.908 19.0502C20.2843 18.8744 20.5903 18.5939 20.782 18.249C21 17.8568 21 17.3434 21 16.3167V9.68465C21 9.15815 21 8.89491 20.926 8.65248C20.8604 8.43773 20.7526 8.23576 20.608 8.05647C20.4447 7.85407 20.218 7.69245 19.7646 7.36921L12.9823 2.53368C12.631 2.2832 12.4553 2.15796 12.2613 2.10982C12.0902 2.06734 11.9098 2.06734 11.7387 2.10982C11.5447 2.15796 11.369 2.2832 11.0177 2.53368Z" stroke="#294FDF" stroke-width="2" stroke-linecap="round" stroke-linejoin="round"/>
</svg>
